<svg width="1024" height="1024" viewBox="0 0 1024 1024" fill="none" xmlns="http://www.w3.org/2000/svg">
<rect width="1024" height="1024" fill="#223972"/>
<path d="M625.516 695.956C630.831 704.95 627.56 716.807 618.566 722.122C609.367 727.437 597.715 724.166 592.605 714.967L468.317 499.916C459.527 503.392 446.035 508.093 431.316 516.474C383.482 544.276 363.449 589.657 313.366 618.685C297.625 627.884 281.067 634.63 268.393 635.856C253.062 637.287 239.774 632.585 230.575 616.641L148.398 474.364C141.039 461.69 146.558 449.22 158.824 442.065C168.022 436.75 186.625 432.049 207.476 419.988C255.515 392.391 275.548 346.805 325.631 317.777C341.371 308.578 357.929 302.241 370.603 300.606C385.935 299.175 399.222 304.081 408.421 320.026L625.516 695.956ZM527.394 474.159L616.317 320.026C625.721 304.081 638.804 299.175 654.135 300.606C667.014 302.241 683.572 308.578 699.108 317.777C749.395 346.805 769.429 392.391 817.263 419.988C838.114 432.049 856.716 436.75 866.12 442.065C878.385 449.22 883.7 461.69 876.341 474.364L794.368 616.641C785.169 632.585 771.677 637.287 756.346 635.856C743.672 634.63 727.113 627.884 711.577 618.685C661.29 589.657 641.257 544.276 593.422 516.474C578.704 508.093 565.417 503.392 556.422 499.916L549.472 512.386L527.394 474.159ZM576.251 465.778C588.107 469.458 602.212 477.43 612.433 483.358C665.992 514.226 683.981 558.994 730.793 585.773C735.699 588.635 748.986 595.994 761.456 596.812L834.434 470.684C822.578 467.209 808.473 459.237 798.252 453.308C744.694 422.441 726.705 377.877 679.892 350.894C674.986 348.032 661.699 340.468 649.025 339.65L576.251 465.778ZM497.549 602.127L432.339 714.967C427.024 724.166 415.576 727.437 406.377 722.122C397.178 716.807 394.112 704.95 399.222 695.956L475.471 563.9L497.549 602.127Z" fill="white"/>
</svg>
